<svg width="760" height="760" viewBox="0 0 760 760" fill="none" xmlns="http://www.w3.org/2000/svg">
  <g fill="#020617">
    <path d="M340 70H372V176L255 440H196L340 70Z"/>
    <path d="M388 70H420L564 490L510 458L372 176V70Z"/>
    <path d="M216 490H274L186 700L118 662L216 490Z"/>
    <rect x="378" y="448" width="172" height="54" rx="10" transform="rotate(25 378 448)"/>
    <rect x="420" y="520" width="54" height="170" rx="10" transform="rotate(25 420 520)"/>
    <rect x="502" y="654" width="126" height="16" rx="4"/>
    <rect x="484" y="678" width="162" height="18" rx="4"/>
    <rect x="466" y="704" width="198" height="20" rx="4"/>
  </g>
  <g fill="#020617" font-family="Bahnschrift, 'Arial Narrow', 'Segoe UI', sans-serif" text-anchor="middle">
    <text x="380" y="604" font-size="66" font-weight="300" letter-spacing="22">akyavaş</text>
    <text x="380" y="702" font-size="66" font-weight="300" letter-spacing="18">hukuk bürosu</text>
  </g>
</svg>
